<?xml version="1.0" encoding="UTF-8" standalone="no"?>
<!-- Created with Inkscape (http://www.inkscape.org/) -->

<svg
   xmlns:dc="http://purl.org/dc/elements/1.1/"
   xmlns:cc="http://creativecommons.org/ns#"
   xmlns:rdf="http://www.w3.org/1999/02/22-rdf-syntax-ns#"
   xmlns:svg="http://www.w3.org/2000/svg"
   xmlns="http://www.w3.org/2000/svg"
   xmlns:sodipodi="http://sodipodi.sourceforge.net/DTD/sodipodi-0.dtd"
   xmlns:inkscape="http://www.inkscape.org/namespaces/inkscape"
   width="500"
   height="300"
   id="svg2"
   version="1.1"
   inkscape:version="0.48.2 r9819"
   sodipodi:docname="logo.svg">
  <defs
     id="defs4" />
  <sodipodi:namedview
     id="base"
     pagecolor="#ffffff"
     bordercolor="#666666"
     borderopacity="1.0"
     inkscape:pageopacity="0.0"
     inkscape:pageshadow="2"
     inkscape:zoom="0.98994949"
     inkscape:cx="120.9765"
     inkscape:cy="134.55844"
     inkscape:document-units="px"
     inkscape:current-layer="g3073"
     showgrid="false"
     inkscape:window-width="1543"
     inkscape:window-height="982"
     inkscape:window-x="0"
     inkscape:window-y="0"
     inkscape:window-maximized="0" />
  <metadata
     id="metadata7">
    <rdf:RDF>
      <cc:Work
         rdf:about="">
        <dc:format>image/svg+xml</dc:format>
        <dc:type
           rdf:resource="http://purl.org/dc/dcmitype/StillImage" />
        <dc:title></dc:title>
      </cc:Work>
    </rdf:RDF>
  </metadata>
  <g
     inkscape:label="Layer 1"
     inkscape:groupmode="layer"
     id="layer1"
     transform="translate(0,-752.36215)">
    <g
       id="g3073"
       transform="translate(-430.32498,87.883272)">
      <path
         style="fill:#fefefe"
         d="m 651.4878,901.01681 c -38.69242,-5.84903 -71.49792,-19.91713 -108.7045,-46.61613 -10.35139,-7.42803 -47.79647,-36.97348 -51.30208,-40.47909 -0.95391,-0.95391 -1.49342,-3.43419 -1.49342,-6.86566 l 0,-5.37225 10.25,-8.40335 c 60.79757,-49.84422 110.96129,-75.07148 160.58053,-80.75569 14.11605,-1.61708 53.69908,-0.75066 65.66947,1.43742 25.13836,4.59508 43.83808,10.78008 67,22.16049 27.71618,13.6181 57.23331,34.25104 83.6325,58.46044 l 8.8675,8.13195 -0.0153,5.17805 c -0.008,2.84792 -0.34592,5.66036 -0.75,6.24986 -0.86108,1.25622 -20.40587,16.75926 -34.73469,27.55175 -44.47184,33.49628 -84.25591,52.00465 -126.5,58.85039 -10.37217,1.68083 -16.84077,2.00919 -38,1.92899 -15.92733,-0.0604 -28.87859,-0.60739 -34.5,-1.45717 z m 56.31445,-39.49328 c 16.02279,-4.0293 34.27859,-15.49993 42.50575,-26.70756 9.41815,-12.83009 12.75077,-26.41184 9.16751,-37.36117 -8.09665,-24.74085 -30.7072,-41.75277 -61.73771,-46.45075 -8.65007,-1.30961 -10.89674,-1.30468 -19.915,0.0437 -10.05975,1.50421 -13.54385,2.52328 -8.62667,2.52328 5.96989,0 8.79167,1.16348 8.79167,3.625 0,1.30625 -0.39992,2.375 -0.88871,2.375 -0.48879,0 -1.18418,1.575 -1.54531,3.5 -0.36113,1.925 -1.08339,3.5 -1.60502,3.5 -1.03997,0 -6.96096,7.78302 -6.96096,9.15004 0,0.46748 0.81665,0.84996 1.81479,0.84996 1.09014,0 2.48254,-1.40029 3.48708,-3.50684 2.84386,-5.96363 6.75603,-7.63856 17.03086,-7.29151 8.55353,0.28892 8.92495,0.40158 11.75,3.56413 2.78214,3.1145 2.91727,3.69885 2.91727,12.61514 0,7.96693 -0.30878,9.74192 -2.0883,12.0042 -2.51812,3.20128 -6.92634,5.61488 -10.25505,5.61488 -1.34347,0 -2.70169,0.675 -3.01828,1.5 -0.46259,1.2055 0.37088,1.5 4.24513,1.5 5.84952,0 10.80359,2.96275 13.41027,8.01993 1.46368,2.83968 1.73971,5.4454 1.5,14.16032 -0.31659,11.51002 -1.20983,13.80142 -7.09212,18.19318 -2.95174,2.20379 -12.19553,3.3193 -18.18879,2.19496 -4.24777,-0.79689 -9.78531,-5.39771 -11.51095,-9.56379 -0.89524,-2.16129 -1.91939,-3.0046 -3.64891,-3.0046 -2.30173,0 -2.34353,0.11738 -0.97935,2.75 1.48992,2.87525 4.5239,6.2172 9.05284,9.97175 2.38255,1.97518 2.64633,2.80756 2.37675,7.5 l -0.30324,5.27825 -6,-0.093 c -7.26272,-0.11255 -13.72534,-3.10685 -21.18925,-9.81755 -11.03098,-9.91777 -16.29101,-22.14503 -17.03095,-39.58945 -0.56932,-13.42227 0.94427,-21.53894 5.81643,-31.19063 3.59363,-7.11894 12.56986,-16.57805 18.69896,-19.70488 5.39355,-2.75159 5.37716,-3.4294 -0.0367,-1.51926 -16.28327,5.74507 -31.80437,19.71899 -39.04603,35.15383 -2.81876,6.00788 -3.17432,7.7634 -3.19225,15.76094 -0.0182,8.10482 0.30357,9.68358 3.23467,15.87262 6.56444,13.86085 16.49953,23.90771 31.15622,31.5067 18.69181,9.69107 38.07678,12.05904 57.90339,7.07318 z"
         id="path3087"
         inkscape:connector-curvature="0" />
    </g>
    <path
       style="fill:#000000"
       d=""
       id="path3071"
       inkscape:connector-curvature="0" />
    <path
       style="fill:#000000"
       d=""
       id="path3069"
       inkscape:connector-curvature="0" />
  </g>
</svg>
